<mxfile host="app.diagrams.net" agent="Mozilla/5.0 (X11; Linux x86_64; rv:128.0) Gecko/20100101 Firefox/128.0" version="26.0.2">
  <diagram name="PÃ¡gina-1" id="93dY-yRZiTwdHXsLRiZo">
    <mxGraphModel dx="2074" dy="1088" grid="1" gridSize="10" guides="1" tooltips="1" connect="1" arrows="1" fold="1" page="1" pageScale="1" pageWidth="1169" pageHeight="827" math="0" shadow="0">
      <root>
        <mxCell id="0" />
        <mxCell id="1" parent="0" />
        <mxCell id="ADCWX5Dhawm2sacQBhxg-3" value="" style="edgeStyle=orthogonalEdgeStyle;rounded=0;orthogonalLoop=1;jettySize=auto;html=1;endArrow=none;endFill=0;" edge="1" parent="1" source="ADCWX5Dhawm2sacQBhxg-1" target="ADCWX5Dhawm2sacQBhxg-2">
          <mxGeometry relative="1" as="geometry" />
        </mxCell>
        <mxCell id="ADCWX5Dhawm2sacQBhxg-1" value="&lt;b&gt;&lt;font style=&quot;font-size: 23px;&quot;&gt;tree&lt;/font&gt;&lt;/b&gt;" style="rounded=0;whiteSpace=wrap;html=1;fillColor=#fff2cc;strokeColor=#d6b656;" vertex="1" parent="1">
          <mxGeometry x="80" y="340" width="120" height="60" as="geometry" />
        </mxCell>
        <mxCell id="ADCWX5Dhawm2sacQBhxg-14" value="" style="edgeStyle=orthogonalEdgeStyle;rounded=0;orthogonalLoop=1;jettySize=auto;html=1;endArrow=none;endFill=0;" edge="1" parent="1" source="ADCWX5Dhawm2sacQBhxg-2" target="ADCWX5Dhawm2sacQBhxg-10">
          <mxGeometry relative="1" as="geometry" />
        </mxCell>
        <mxCell id="ADCWX5Dhawm2sacQBhxg-2" value="&lt;b&gt;&lt;font style=&quot;font-size: 23px;&quot;&gt;cpp&lt;/font&gt;&lt;/b&gt;" style="rounded=0;whiteSpace=wrap;html=1;fillColor=#dae8fc;strokeColor=#6c8ebf;" vertex="1" parent="1">
          <mxGeometry x="280" y="340" width="120" height="60" as="geometry" />
        </mxCell>
        <mxCell id="ADCWX5Dhawm2sacQBhxg-6" value="" style="edgeStyle=orthogonalEdgeStyle;rounded=0;orthogonalLoop=1;jettySize=auto;html=1;endArrow=none;endFill=0;entryX=1;entryY=0.5;entryDx=0;entryDy=0;" edge="1" parent="1" source="ADCWX5Dhawm2sacQBhxg-4" target="ADCWX5Dhawm2sacQBhxg-1">
          <mxGeometry relative="1" as="geometry">
            <mxPoint x="200" y="460" as="targetPoint" />
          </mxGeometry>
        </mxCell>
        <mxCell id="ADCWX5Dhawm2sacQBhxg-15" value="" style="edgeStyle=orthogonalEdgeStyle;rounded=0;orthogonalLoop=1;jettySize=auto;html=1;endArrow=none;endFill=0;" edge="1" parent="1" source="ADCWX5Dhawm2sacQBhxg-4" target="ADCWX5Dhawm2sacQBhxg-11">
          <mxGeometry relative="1" as="geometry" />
        </mxCell>
        <mxCell id="ADCWX5Dhawm2sacQBhxg-4" value="&lt;b&gt;&lt;font style=&quot;font-size: 23px;&quot;&gt;python&lt;/font&gt;&lt;/b&gt;" style="rounded=0;whiteSpace=wrap;html=1;fillColor=#dae8fc;strokeColor=#6c8ebf;" vertex="1" parent="1">
          <mxGeometry x="280" y="510" width="120" height="60" as="geometry" />
        </mxCell>
        <mxCell id="ADCWX5Dhawm2sacQBhxg-9" value="" style="edgeStyle=orthogonalEdgeStyle;rounded=0;orthogonalLoop=1;jettySize=auto;html=1;endArrow=none;endFill=0;" edge="1" parent="1" source="ADCWX5Dhawm2sacQBhxg-7">
          <mxGeometry relative="1" as="geometry">
            <mxPoint x="240" y="380" as="targetPoint" />
          </mxGeometry>
        </mxCell>
        <mxCell id="ADCWX5Dhawm2sacQBhxg-13" value="" style="edgeStyle=orthogonalEdgeStyle;rounded=0;orthogonalLoop=1;jettySize=auto;html=1;endArrow=none;endFill=0;" edge="1" parent="1" source="ADCWX5Dhawm2sacQBhxg-7" target="ADCWX5Dhawm2sacQBhxg-12">
          <mxGeometry relative="1" as="geometry" />
        </mxCell>
        <mxCell id="ADCWX5Dhawm2sacQBhxg-7" value="&lt;b&gt;&lt;font style=&quot;font-size: 23px;&quot;&gt;c&lt;/font&gt;&lt;/b&gt;" style="rounded=0;whiteSpace=wrap;html=1;fillColor=#dae8fc;strokeColor=#6c8ebf;" vertex="1" parent="1">
          <mxGeometry x="280" y="170" width="120" height="60" as="geometry" />
        </mxCell>
        <mxCell id="ADCWX5Dhawm2sacQBhxg-10" value="&lt;b&gt;&lt;font style=&quot;font-size: 23px;&quot;&gt;otros_cursos&lt;/font&gt;&lt;/b&gt;" style="rounded=0;whiteSpace=wrap;html=1;fillColor=#f8cecc;strokeColor=#b85450;" vertex="1" parent="1">
          <mxGeometry x="440" y="340" width="160" height="60" as="geometry" />
        </mxCell>
        <mxCell id="ADCWX5Dhawm2sacQBhxg-11" value="&lt;b&gt;&lt;font style=&quot;font-size: 23px;&quot;&gt;otros_cursos&lt;/font&gt;&lt;/b&gt;" style="rounded=0;whiteSpace=wrap;html=1;fillColor=#f8cecc;strokeColor=#b85450;" vertex="1" parent="1">
          <mxGeometry x="440" y="510" width="160" height="60" as="geometry" />
        </mxCell>
        <mxCell id="ADCWX5Dhawm2sacQBhxg-12" value="&lt;b&gt;&lt;font style=&quot;font-size: 23px;&quot;&gt;otros_cursos&lt;/font&gt;&lt;/b&gt;" style="rounded=0;whiteSpace=wrap;html=1;fillColor=#f8cecc;strokeColor=#b85450;" vertex="1" parent="1">
          <mxGeometry x="440" y="170" width="160" height="60" as="geometry" />
        </mxCell>
        <mxCell id="ADCWX5Dhawm2sacQBhxg-24" value="" style="edgeStyle=orthogonalEdgeStyle;rounded=0;orthogonalLoop=1;jettySize=auto;html=1;endArrow=none;endFill=0;" edge="1" parent="1" source="ADCWX5Dhawm2sacQBhxg-16" target="ADCWX5Dhawm2sacQBhxg-12">
          <mxGeometry relative="1" as="geometry" />
        </mxCell>
        <mxCell id="ADCWX5Dhawm2sacQBhxg-16" value="&lt;b&gt;&lt;font style=&quot;font-size: 23px;&quot;&gt;python&lt;/font&gt;&lt;/b&gt;" style="rounded=0;whiteSpace=wrap;html=1;fillColor=#d5e8d4;strokeColor=#82b366;" vertex="1" parent="1">
          <mxGeometry x="640" y="220" width="120" height="60" as="geometry" />
        </mxCell>
        <mxCell id="ADCWX5Dhawm2sacQBhxg-23" value="" style="edgeStyle=orthogonalEdgeStyle;rounded=0;orthogonalLoop=1;jettySize=auto;html=1;endArrow=none;endFill=0;" edge="1" parent="1" source="ADCWX5Dhawm2sacQBhxg-17" target="ADCWX5Dhawm2sacQBhxg-12">
          <mxGeometry relative="1" as="geometry" />
        </mxCell>
        <mxCell id="ADCWX5Dhawm2sacQBhxg-17" value="&lt;b&gt;&lt;font style=&quot;font-size: 23px;&quot;&gt;cpp&lt;/font&gt;&lt;/b&gt;" style="rounded=0;whiteSpace=wrap;html=1;fillColor=#d5e8d4;strokeColor=#82b366;" vertex="1" parent="1">
          <mxGeometry x="640" y="120" width="120" height="60" as="geometry" />
        </mxCell>
        <mxCell id="ADCWX5Dhawm2sacQBhxg-25" value="" style="edgeStyle=orthogonalEdgeStyle;rounded=0;orthogonalLoop=1;jettySize=auto;html=1;endArrow=none;endFill=0;" edge="1" parent="1" source="ADCWX5Dhawm2sacQBhxg-18" target="ADCWX5Dhawm2sacQBhxg-10">
          <mxGeometry relative="1" as="geometry" />
        </mxCell>
        <mxCell id="ADCWX5Dhawm2sacQBhxg-18" value="&lt;b&gt;&lt;font style=&quot;font-size: 23px;&quot;&gt;c&lt;/font&gt;&lt;/b&gt;" style="rounded=0;whiteSpace=wrap;html=1;fillColor=#d5e8d4;strokeColor=#82b366;" vertex="1" parent="1">
          <mxGeometry x="640" y="290" width="120" height="60" as="geometry" />
        </mxCell>
        <mxCell id="ADCWX5Dhawm2sacQBhxg-26" value="" style="edgeStyle=orthogonalEdgeStyle;rounded=0;orthogonalLoop=1;jettySize=auto;html=1;endArrow=none;endFill=0;" edge="1" parent="1" source="ADCWX5Dhawm2sacQBhxg-20" target="ADCWX5Dhawm2sacQBhxg-10">
          <mxGeometry relative="1" as="geometry" />
        </mxCell>
        <mxCell id="ADCWX5Dhawm2sacQBhxg-20" value="&lt;b&gt;&lt;font style=&quot;font-size: 23px;&quot;&gt;python&lt;/font&gt;&lt;/b&gt;" style="rounded=0;whiteSpace=wrap;html=1;fillColor=#d5e8d4;strokeColor=#82b366;" vertex="1" parent="1">
          <mxGeometry x="640" y="384" width="120" height="60" as="geometry" />
        </mxCell>
        <mxCell id="ADCWX5Dhawm2sacQBhxg-27" value="" style="edgeStyle=orthogonalEdgeStyle;rounded=0;orthogonalLoop=1;jettySize=auto;html=1;endArrow=none;endFill=0;" edge="1" parent="1" source="ADCWX5Dhawm2sacQBhxg-21" target="ADCWX5Dhawm2sacQBhxg-11">
          <mxGeometry relative="1" as="geometry" />
        </mxCell>
        <mxCell id="ADCWX5Dhawm2sacQBhxg-21" value="&lt;b&gt;&lt;font style=&quot;font-size: 23px;&quot;&gt;c&lt;/font&gt;&lt;/b&gt;" style="rounded=0;whiteSpace=wrap;html=1;fillColor=#d5e8d4;strokeColor=#82b366;" vertex="1" parent="1">
          <mxGeometry x="640" y="460" width="120" height="60" as="geometry" />
        </mxCell>
        <mxCell id="ADCWX5Dhawm2sacQBhxg-28" value="" style="edgeStyle=orthogonalEdgeStyle;rounded=0;orthogonalLoop=1;jettySize=auto;html=1;endArrow=none;endFill=0;" edge="1" parent="1" source="ADCWX5Dhawm2sacQBhxg-22" target="ADCWX5Dhawm2sacQBhxg-11">
          <mxGeometry relative="1" as="geometry" />
        </mxCell>
        <mxCell id="ADCWX5Dhawm2sacQBhxg-22" value="&lt;b&gt;&lt;font style=&quot;font-size: 23px;&quot;&gt;cpp&lt;/font&gt;&lt;/b&gt;" style="rounded=0;whiteSpace=wrap;html=1;fillColor=#d5e8d4;strokeColor=#82b366;" vertex="1" parent="1">
          <mxGeometry x="640" y="560" width="120" height="60" as="geometry" />
        </mxCell>
      </root>
    </mxGraphModel>
  </diagram>
</mxfile>
